<svg xmlns="http://www.w3.org/2000/svg" width="960" height="960" viewBox="0 0 960 960">
<g>
<path d="M 495.93 576.14 C495.19,577.52 493.85,577.98 490.71,577.93 C488.40,577.89 485.60,577.47 484.50,577.00 C483.40,576.53 480.38,576.11 477.78,576.07 C473.77,576.01 472.54,575.48 469.57,572.50 C467.64,570.58 465.60,569.00 465.04,569.00 C463.13,569.00 455.90,561.70 454.51,558.37 C453.59,556.16 451.94,554.58 449.48,553.56 C445.13,551.74 440.24,546.76 438.32,542.21 C437.51,540.28 435.82,538.51 434.22,537.90 C430.49,536.50 424.06,530.18 422.37,526.26 C421.52,524.28 419.72,522.48 417.74,521.63 C413.80,519.93 407.50,513.51 406.08,509.73 C405.49,508.18 403.82,506.51 402.27,505.92 C398.53,504.52 392.16,498.23 390.50,494.31 C389.67,492.35 387.67,490.36 385.33,489.15 C380.87,486.86 376.90,482.83 374.60,478.27 C373.70,476.49 371.57,474.31 369.86,473.43 C365.88,471.37 360.63,466.12 358.57,462.14 C357.69,460.43 355.51,458.30 353.73,457.40 C349.29,455.17 344.18,450.16 342.30,446.20 C341.41,444.33 339.16,442.10 337.11,441.04 C332.82,438.84 328.87,434.76 326.55,430.17 C325.59,428.27 323.50,426.26 321.68,425.50 C317.94,423.92 311.87,417.69 310.18,413.70 C309.50,412.09 307.59,410.31 305.68,409.51 C303.86,408.75 300.50,405.96 298.22,403.31 C295.94,400.67 292.99,397.42 291.68,396.11 C290.36,394.79 286.81,391.24 283.78,388.22 C280.76,385.19 277.21,381.63 275.89,380.30 C274.58,378.97 271.24,375.77 268.47,373.19 C265.70,370.61 262.65,367.26 261.69,365.74 C260.72,364.22 257.59,361.77 254.72,360.30 L 249.50 357.62 L 201.79 357.56 C197.42,357.56 193.42,357.56 189.76,357.56 C160.97,357.57 153.21,357.57 151.07,354.10 C150.27,352.82 150.25,351.06 150.22,348.66 C150.21,347.83 150.19,346.92 150.15,345.94 C149.76,337.40 151.05,332.42 153.86,331.57 C155.13,331.18 226.22,331.44 249.81,331.91 C253.77,331.99 254.77,332.62 262.25,339.75 C266.72,344.01 272.04,349.24 274.07,351.37 C279.17,356.74 282.67,360.30 288.50,366.03 C291.25,368.73 295.17,372.64 297.22,374.72 C299.27,376.80 305.19,382.55 310.37,387.50 C315.55,392.45 320.63,397.34 321.65,398.37 C325.42,402.19 340.63,418.04 344.51,422.20 C346.72,424.56 350.02,427.62 351.84,429.00 C353.67,430.38 356.49,433.40 358.11,435.73 C359.74,438.05 363.02,441.10 365.40,442.50 C367.97,444.00 371.19,447.22 373.28,450.37 C375.24,453.31 378.82,456.97 381.27,458.52 C383.71,460.06 387.24,463.57 389.11,466.31 C390.97,469.06 394.75,472.81 397.50,474.66 C400.25,476.51 403.78,479.93 405.35,482.26 C406.91,484.59 410.35,488.08 412.98,490.02 C415.62,491.95 419.64,495.89 421.91,498.77 C424.19,501.65 427.80,505.16 429.93,506.57 C432.06,507.98 435.41,511.56 437.38,514.51 C439.51,517.72 442.71,520.92 445.34,522.46 C447.97,524.00 451.17,527.19 453.28,530.37 C455.23,533.31 458.78,536.95 461.16,538.47 C463.55,539.99 467.28,543.50 469.45,546.28 C471.62,549.05 475.35,552.70 477.74,554.38 C480.12,556.06 483.45,559.59 485.15,562.23 C486.84,564.87 489.64,567.99 491.36,569.17 C496.06,572.37 497.09,573.96 495.93,576.14 ZM 577.40 553.51 C574.75,557.56 571.73,556.67 564.08,549.59 C561.65,547.34 558.30,544.04 556.64,542.25 C554.99,540.46 553.09,539.00 552.43,539.00 C551.77,539.00 550.49,537.87 549.59,536.50 C548.15,534.29 541.80,527.81 534.80,521.39 C533.53,520.23 529.90,516.63 526.73,513.39 C523.56,510.15 520.18,506.77 519.23,505.87 C518.28,504.98 514.80,501.27 511.50,497.64 C508.20,494.01 504.95,491.03 504.27,491.02 C503.60,491.01 502.25,489.79 501.28,488.31 C500.31,486.83 496.94,483.11 493.79,480.06 C490.65,477.00 487.49,473.91 486.78,473.18 C486.08,472.46 482.63,469.08 479.11,465.68 C475.60,462.28 471.85,458.60 470.79,457.50 C469.73,456.40 466.12,452.76 462.77,449.41 C459.42,446.06 455.74,442.37 454.59,441.21 C453.44,440.04 449.85,436.49 446.62,433.30 C439.37,426.16 437.98,424.76 430.70,417.38 C427.51,414.15 423.91,410.55 422.70,409.40 C421.49,408.24 418.25,404.87 415.49,401.90 C412.73,398.93 409.28,395.72 407.82,394.78 C406.35,393.83 404.89,392.25 404.56,391.28 C404.24,390.30 402.18,388.23 399.99,386.69 C397.79,385.14 396.00,383.24 396.00,382.46 C396.00,381.69 394.66,380.36 393.02,379.51 C391.38,378.66 389.37,376.74 388.56,375.23 C387.74,373.73 385.49,371.38 383.56,370.00 C381.62,368.62 379.80,366.78 379.50,365.90 C379.20,365.02 377.87,363.80 376.53,363.20 C375.19,362.59 373.40,360.75 372.56,359.11 C371.71,357.48 370.23,355.88 369.26,355.55 C368.29,355.22 366.38,353.40 365.00,351.50 C363.62,349.60 361.70,347.77 360.72,347.45 C359.75,347.12 358.28,345.84 357.47,344.60 C355.20,341.14 344.16,330.00 342.99,330.00 C342.42,330.00 341.52,328.87 341.00,327.49 C340.47,326.11 339.02,324.50 337.77,323.92 C336.52,323.35 334.38,321.34 333.00,319.46 C331.62,317.58 329.68,315.77 328.68,315.43 C327.68,315.10 326.10,313.62 325.16,312.16 C324.23,310.70 321.22,307.39 318.48,304.81 C304.81,291.94 299.00,285.30 299.00,282.54 C299.00,281.31 300.12,278.77 301.48,276.90 C302.84,275.03 304.49,272.50 305.13,271.27 C307.51,266.74 313.45,267.21 314.50,272.02 C314.89,273.80 316.79,276.24 319.32,278.22 C326.89,284.17 328.22,285.46 330.66,289.30 C332.00,291.39 333.85,293.37 334.79,293.72 C336.94,294.50 345.01,302.58 347.35,306.30 C348.32,307.85 349.88,309.38 350.81,309.72 C353.01,310.52 361.37,318.85 362.90,321.76 C363.55,323.01 365.79,325.10 367.86,326.41 C372.31,329.22 376.63,333.62 378.32,337.05 C378.99,338.40 380.92,340.20 382.62,341.05 C384.32,341.90 387.78,345.05 390.31,348.05 C395.64,354.36 396.64,355.37 403.87,361.75 C406.82,364.36 409.62,367.49 410.08,368.71 C410.54,369.93 412.63,372.00 414.72,373.32 C418.29,375.58 422.49,379.94 427.83,386.95 C429.11,388.63 430.70,390.00 431.36,390.00 C432.77,390.00 440.89,398.27 443.25,402.10 C444.13,403.52 446.23,405.27 447.92,405.97 C449.62,406.67 451.00,407.54 451.00,407.91 C451.00,408.28 452.58,410.25 454.50,412.29 C456.42,414.33 458.00,416.41 458.00,416.92 C458.00,417.42 461.60,420.83 466.00,424.50 C470.40,428.17 474.00,431.73 474.00,432.41 C474.00,433.85 478.16,438.00 479.60,438.00 C480.85,438.00 489.11,446.63 491.38,450.29 C492.33,451.83 494.09,453.48 495.30,453.95 C497.76,454.91 503.74,461.03 506.37,465.29 C507.33,466.83 509.09,468.49 510.30,468.98 C511.51,469.47 514.75,472.40 517.50,475.49 C523.08,481.76 524.13,482.82 532.10,490.27 C535.18,493.15 537.97,496.27 538.30,497.21 C538.63,498.15 540.61,500.02 542.70,501.38 C544.79,502.73 548.30,505.91 550.50,508.43 C557.12,516.03 559.53,518.38 563.40,521.00 C565.42,522.38 567.96,525.16 569.04,527.20 C570.11,529.23 572.18,531.71 573.63,532.70 C578.42,535.97 587.00,544.27 587.00,545.62 C587.00,546.36 585.21,547.87 583.01,548.99 C580.82,550.11 578.30,552.14 577.40,553.51 ZM 657.35 474.36 C655.00,477.37 652.99,478.98 651.62,478.94 C650.29,478.90 646.33,475.51 641.00,469.83 C636.33,464.85 631.47,459.82 630.22,458.64 C628.97,457.46 625.29,453.80 622.04,450.50 C618.79,447.20 615.09,443.46 613.82,442.20 C609.92,438.32 599.59,428.11 598.00,426.56 C593.87,422.53 583.38,412.13 582.50,411.18 C581.95,410.59 578.35,406.98 574.50,403.15 C570.65,399.33 566.83,395.47 566.00,394.57 C565.17,393.68 561.69,390.43 558.25,387.36 C554.81,384.30 552.00,381.16 552.00,380.40 C552.00,379.65 550.31,377.95 548.25,376.63 C546.19,375.31 542.37,371.82 539.76,368.87 C537.15,365.92 534.30,362.83 533.43,362.00 C532.55,361.17 528.93,357.58 525.37,354.00 C521.81,350.42 518.29,346.90 517.53,346.17 C515.33,344.02 503.30,331.97 501.69,330.31 C500.88,329.47 497.30,325.85 493.72,322.28 C490.15,318.70 486.61,315.15 485.86,314.38 C483.74,312.20 471.20,299.68 469.46,298.00 C468.61,297.17 465.12,293.71 461.70,290.30 C458.29,286.88 454.67,283.28 453.65,282.30 C452.63,281.31 448.67,277.35 444.85,273.50 C441.02,269.65 437.40,266.05 436.80,265.50 C436.19,264.95 432.59,261.35 428.80,257.50 C425.00,253.65 421.58,250.21 421.20,249.85 C413.05,242.30 392.00,221.03 392.00,220.36 C392.00,219.85 390.99,218.78 389.75,217.98 C386.34,215.76 375.88,204.77 375.02,202.50 C373.80,199.28 374.89,198.09 380.59,196.43 C383.55,195.57 386.22,194.45 386.54,193.93 C387.60,192.21 391.40,192.98 393.96,195.43 C396.07,197.44 401.29,202.62 411.33,212.67 L 451.33 252.67 L 459.33 260.67 L 483.33 284.67 C486.91,288.24 490.43,291.79 491.17,292.56 C491.90,293.32 495.42,296.84 499.00,300.37 C502.58,303.90 506.25,307.55 507.17,308.48 C508.08,309.41 511.76,313.09 515.33,316.67 L 547.33 348.67 C550.91,352.24 554.59,355.92 555.51,356.83 C556.43,357.75 560.08,361.42 563.63,365.00 C567.18,368.58 570.70,372.10 571.46,372.83 C572.21,373.57 575.76,377.09 579.33,380.67 L 595.33 396.67 C598.91,400.24 602.59,403.92 603.51,404.83 C609.97,411.28 618.29,419.62 618.84,420.20 C619.20,420.59 622.65,424.01 626.50,427.80 C630.35,431.59 634.09,435.32 634.82,436.09 C635.55,436.87 642.01,443.27 649.17,450.32 C661.67,462.61 662.17,463.27 661.58,466.43 C661.24,468.24 659.34,471.81 657.35,474.36 ZM 783.74 730.63 C778.58,732.07 772.55,732.42 749.00,732.61 C733.33,732.74 719.15,732.48 717.50,732.04 C715.85,731.60 712.64,731.18 710.36,731.12 C708.09,731.05 704.94,730.33 703.36,729.51 C701.79,728.68 699.73,728.01 698.78,728.01 C695.66,727.99 686.67,718.97 684.08,713.23 C681.87,708.34 681.75,707.40 682.82,703.40 C683.47,700.96 684.00,697.12 684.00,694.85 C684.00,685.90 692.06,678.78 704.75,676.53 C709.01,675.78 713.72,674.69 715.21,674.12 C716.88,673.48 730.60,673.06 750.93,673.03 C781.36,672.98 789.01,672.43 789.00,670.27 C788.99,669.85 787.96,668.21 786.70,666.64 C784.79,664.25 783.08,663.53 776.45,662.31 C772.08,661.51 764.32,660.62 759.21,660.33 C750.85,659.86 749.76,659.57 748.38,657.45 C746.37,654.39 746.93,651.85 749.92,650.35 C754.50,648.07 786.45,650.89 791.81,654.05 C793.63,655.12 795.98,656.00 797.04,656.00 C799.50,656.00 803.99,662.97 805.41,669.00 C806.86,675.17 806.68,701.86 805.13,710.90 C804.14,716.63 803.13,719.18 800.68,722.14 C798.93,724.24 797.05,725.97 796.50,725.99 C795.95,726.00 794.26,726.66 792.74,727.45 C791.23,728.24 787.18,729.67 783.74,730.63 ZM 675.05 431.00 C674.43,433.48 673.15,436.47 672.21,437.65 C669.76,440.74 667.07,439.33 662.60,432.59 C660.56,429.52 658.43,427.00 657.87,427.00 C657.30,427.00 654.29,424.31 651.17,421.01 C643.48,412.89 642.35,411.76 635.90,405.73 C632.82,402.85 630.03,399.74 629.71,398.81 C629.38,397.88 627.85,396.33 626.30,395.36 C622.05,392.70 614.97,385.78 613.98,383.30 C613.49,382.09 611.83,380.32 610.29,379.36 C608.76,378.41 605.15,375.12 602.27,372.06 C599.39,369.00 596.10,365.60 594.96,364.50 C593.82,363.40 590.23,359.80 586.99,356.50 C583.75,353.20 580.07,349.48 578.80,348.23 C574.75,344.23 565.09,334.58 562.55,332.00 C561.19,330.62 558.25,327.92 556.00,326.00 C553.75,324.08 550.79,320.80 549.42,318.71 C548.05,316.63 545.87,314.52 544.57,314.03 C543.28,313.54 540.11,310.39 537.53,307.04 C534.95,303.68 531.64,300.19 530.17,299.29 C526.34,296.91 518.30,288.51 517.52,286.07 C517.16,284.93 516.52,284.00 516.11,284.00 C514.23,284.00 503.37,274.56 502.26,271.96 C501.58,270.36 499.78,268.28 498.26,267.34 C494.03,264.70 488.14,258.92 485.39,254.70 C484.03,252.61 482.15,250.63 481.21,250.28 C479.06,249.50 470.99,241.42 468.65,237.71 C467.69,236.17 465.91,234.51 464.70,234.02 C462.08,232.97 454.16,224.96 452.57,221.76 C451.95,220.52 450.29,218.95 448.88,218.27 C447.47,217.59 443.48,213.66 440.02,209.52 C436.55,205.38 433.13,202.00 432.42,202.00 C431.70,202.00 428.53,198.85 425.36,195.00 C422.19,191.15 419.09,188.00 418.47,188.00 C416.73,188.00 413.01,183.59 413.80,182.47 C414.59,181.34 421.13,179.32 428.23,178.00 C432.59,177.20 433.36,177.38 437.97,180.31 C440.72,182.07 443.23,184.29 443.56,185.26 C443.88,186.23 445.41,187.68 446.95,188.47 C448.50,189.27 450.70,191.52 451.85,193.46 C452.99,195.41 454.46,197.00 455.10,197.00 C456.34,197.00 468.00,208.93 468.00,210.20 C468.00,210.61 469.37,211.66 471.04,212.52 C472.72,213.39 474.57,215.15 475.15,216.44 C475.74,217.73 477.28,219.26 478.57,219.85 C479.87,220.44 482.07,222.74 483.48,224.96 C484.88,227.18 486.58,229.01 487.26,229.02 C487.94,229.04 490.98,231.80 494.00,235.16 C497.02,238.52 500.24,241.94 501.14,242.75 C503.36,244.76 507.64,248.96 508.66,250.15 C509.12,250.68 512.54,253.97 516.25,257.46 C519.96,260.94 523.00,264.28 523.00,264.88 C523.00,265.47 524.24,266.74 525.75,267.70 C528.54,269.48 533.00,274.02 533.00,275.09 C533.00,275.41 534.13,276.19 535.51,276.82 C536.90,277.45 538.52,279.05 539.13,280.38 C539.73,281.70 541.19,283.30 542.37,283.93 C543.55,284.56 545.61,286.68 546.95,288.64 C548.30,290.60 550.44,292.60 551.71,293.08 C552.98,293.56 554.54,295.09 555.16,296.46 C555.79,297.84 557.08,299.21 558.04,299.51 C558.99,299.81 561.00,301.83 562.50,304.00 C564.00,306.17 566.09,308.21 567.14,308.54 C568.19,308.88 569.74,310.20 570.58,311.48 C572.08,313.77 577.00,318.76 588.07,329.23 C591.14,332.13 594.66,335.96 595.89,337.75 C597.13,339.54 598.56,341.00 599.08,341.00 C600.07,341.00 619.00,359.56 619.00,360.53 C619.00,361.39 629.50,371.44 632.34,373.30 C633.72,374.21 635.13,375.83 635.47,376.90 C635.81,377.98 637.65,379.77 639.55,380.90 C641.46,382.02 643.51,384.03 644.12,385.36 C644.72,386.69 646.31,388.28 647.64,388.88 C648.97,389.49 650.36,390.77 650.73,391.74 C651.10,392.71 654.12,396.04 657.45,399.15 C663.93,405.21 664.42,405.69 672.13,413.86 C677.66,419.71 677.75,420.27 675.05,431.00 ZM 534.50 570.00 C530.76,572.48 530.37,572.47 525.49,569.89 C520.63,567.33 517.23,564.30 516.45,561.84 C516.13,560.83 515.21,560.00 514.41,560.00 C513.61,560.00 512.55,558.99 512.05,557.75 C511.00,555.12 500.30,544.60 497.75,543.69 C496.79,543.34 496.00,542.48 496.00,541.77 C496.00,540.23 484.27,528.66 481.75,527.72 C480.79,527.36 480.00,526.47 480.00,525.74 C480.00,524.18 468.27,512.62 465.75,511.70 C464.79,511.35 464.00,510.47 464.00,509.74 C464.00,508.18 452.27,496.62 449.75,495.70 C448.79,495.35 447.99,494.49 447.98,493.78 C447.96,492.22 436.20,480.58 433.75,479.69 C432.79,479.35 432.00,478.47 432.00,477.74 C432.00,476.18 420.27,464.62 417.75,463.70 C416.79,463.35 416.00,462.47 416.00,461.75 C416.00,460.17 404.22,448.53 401.75,447.67 C400.79,447.34 399.99,446.49 399.98,445.78 C399.96,444.22 388.20,432.58 385.75,431.69 C384.79,431.35 384.00,430.47 384.00,429.75 C384.00,428.17 372.22,416.53 369.75,415.67 C368.79,415.34 367.99,414.49 367.98,413.78 C367.96,412.22 356.20,400.58 353.75,399.69 C352.79,399.35 352.00,398.55 352.00,397.93 C352.00,396.58 339.82,384.53 337.58,383.67 C336.71,383.34 335.99,382.49 335.98,381.78 C335.96,380.22 324.20,368.58 321.75,367.69 C320.79,367.35 319.99,366.49 319.98,365.78 C319.96,364.22 308.20,352.58 305.75,351.69 C304.79,351.35 304.01,350.49 304.01,349.78 C304.02,348.45 291.22,336.00 289.83,336.00 C289.40,336.00 288.39,334.73 287.59,333.18 C286.79,331.62 285.46,329.79 284.63,329.11 C282.30,327.17 281.52,322.09 283.33,320.68 C284.17,320.03 285.34,317.64 285.94,315.37 C287.92,307.78 291.09,307.50 296.40,314.45 C297.88,316.40 299.53,318.00 300.06,318.00 C300.78,318.00 318.32,335.24 323.77,341.31 C324.17,341.75 334.85,352.42 347.50,365.01 C360.15,377.60 370.95,388.38 371.50,388.96 C372.05,389.54 411.76,429.21 459.75,477.12 C507.74,525.02 547.00,564.53 547.00,564.91 C547.00,566.60 544.31,568.00 541.05,568.01 C539.10,568.01 536.15,568.91 534.50,570.00 ZM 433.37 730.14 C432.64,730.90 432.10,731.48 431.46,731.90 C429.39,733.25 426.23,732.92 412.06,731.41 L 411.00 731.29 C392.40,729.32 387.04,727.62 381.69,722.00 C374.59,714.55 373.63,709.96 374.20,686.17 L 374.68 666.20 L 378.59 661.54 C383.52,655.66 392.82,651.13 401.32,650.47 C404.60,650.21 407.86,649.53 408.55,648.96 C409.40,648.26 419.28,648.15 439.15,648.62 C465.06,649.24 468.84,649.54 471.49,651.16 C473.15,652.17 475.27,652.99 476.21,653.00 C478.89,653.00 485.30,657.80 487.54,661.49 C489.29,664.36 489.62,666.81 489.84,678.74 C490.09,691.31 489.92,692.87 488.14,695.07 L 486.18 697.50 L 439.52 697.66 C396.63,697.80 392.71,697.95 390.93,699.56 C388.30,701.94 388.51,705.26 391.50,708.82 C392.88,710.45 394.00,712.23 394.00,712.77 C394.00,713.31 394.60,714.25 395.33,714.86 C396.87,716.13 409.87,718.38 415.00,718.26 C418.38,718.18 432.57,720.62 434.05,721.53 C434.45,721.78 435.08,723.17 435.44,724.63 C435.96,726.70 435.51,727.90 433.37,730.14 ZM 679.53 332.61 C680.01,334.84 679.79,335.87 678.76,336.26 C676.87,336.99 675.72,336.10 674.25,332.75 C673.59,331.24 672.61,330.00 672.09,330.00 C671.56,330.00 668.66,327.52 665.63,324.50 C662.61,321.48 659.43,319.00 658.57,319.00 C657.70,319.00 657.00,318.31 657.00,317.46 C657.00,315.44 646.27,304.71 642.75,303.21 C641.24,302.57 640.00,301.42 640.00,300.66 C640.00,298.79 630.35,289.08 627.35,287.94 C626.04,287.44 624.57,285.99 624.08,284.71 C622.87,281.53 614.61,273.18 611.50,272.00 C610.11,271.47 608.53,269.89 608.00,268.50 C606.82,265.39 598.47,257.13 595.29,255.92 C594.01,255.43 592.57,253.99 592.08,252.71 C590.87,249.53 582.61,241.18 579.50,240.00 C578.11,239.47 576.53,237.89 576.00,236.50 C574.82,233.39 566.47,225.13 563.29,223.92 C562.01,223.43 560.58,222.01 560.10,220.76 C558.90,217.59 549.97,208.44 547.25,207.58 C546.01,207.19 545.00,206.29 545.00,205.59 C545.00,204.21 536.68,194.63 531.11,189.58 C524.64,183.71 519.00,177.81 519.00,176.91 C519.00,175.34 521.01,175.62 538.50,179.68 C542.35,180.57 547.08,182.06 549.00,182.99 C550.92,183.92 555.96,185.47 560.19,186.44 C564.64,187.46 568.60,189.00 569.59,190.10 C570.54,191.15 571.92,192.00 572.67,192.00 C573.41,192.00 576.61,193.75 579.76,195.88 C582.92,198.01 586.85,200.44 588.50,201.28 C590.15,202.11 592.72,203.93 594.22,205.32 C595.71,206.71 597.78,208.11 598.82,208.44 C599.85,208.77 601.20,210.14 601.81,211.49 C602.43,212.84 604.07,214.23 605.47,214.58 C606.86,214.93 608.00,215.54 608.00,215.92 C608.00,216.31 609.82,217.65 612.04,218.90 C614.27,220.15 617.18,222.91 618.51,225.02 C619.85,227.13 622.18,229.46 623.70,230.18 C625.22,230.91 628.49,234.55 630.98,238.26 C633.47,241.98 636.87,245.85 638.53,246.86 C640.20,247.88 643.04,251.36 644.85,254.60 C650.32,264.40 652.55,267.91 655.14,270.77 C657.71,273.61 670.00,297.73 670.00,299.94 C670.00,300.63 670.62,302.62 671.38,304.35 C673.61,309.44 677.04,320.14 677.99,325.00 C678.48,327.48 679.17,330.90 679.53,332.61 ZM 517.64 731.49 C517.01,731.68 514.41,732.08 511.85,732.38 C506.41,733.03 505.15,732.03 505.04,726.97 C505.00,725.06 504.70,719.22 504.39,714.00 C504.07,708.78 504.13,695.88 504.51,685.35 L 505.21 666.21 L 509.95 660.46 C515.57,653.64 519.88,651.11 526.00,651.02 C528.47,650.98 532.30,650.50 534.50,649.94 C536.70,649.39 542.78,648.52 548.00,648.03 C558.02,647.07 559.42,647.30 579.00,653.11 C585.99,655.19 588.30,654.95 604.00,650.51 C608.13,649.34 613.74,648.99 626.50,649.11 C641.40,649.25 643.93,649.52 647.00,651.25 C648.92,652.34 652.36,653.96 654.63,654.86 C657.25,655.91 660.03,658.18 662.27,661.12 L 665.79 665.75 L 666.14 686.12 L 666.16 687.08 C666.76,722.04 666.87,728.85 663.91,730.69 C663.16,731.15 662.22,731.29 661.05,731.49 C650.71,733.24 649.80,730.32 649.91,695.51 L 649.91 693.30 C649.97,673.31 649.99,668.61 647.67,665.88 C646.87,664.94 645.80,664.23 644.36,663.22 C639.85,660.06 618.55,658.95 609.10,661.39 C593.53,665.40 593.58,665.29 593.16,694.82 C592.98,707.85 592.53,720.96 592.16,723.96 C591.53,729.21 591.37,729.45 588.00,730.16 C586.08,730.56 582.85,730.46 580.83,729.93 L 577.16 728.97 L 577.05 701.73 C576.99,686.75 576.67,672.80 576.34,670.73 C575.60,666.11 571.19,662.06 566.67,661.86 C541.08,660.69 527.77,661.99 523.41,666.08 C521.08,668.27 521.06,668.52 520.64,694.90 C520.19,722.85 519.53,730.92 517.64,731.49 ZM 333.75 732.40 C330.31,732.67 314.45,733.15 298.50,733.46 C271.44,733.98 269.10,733.89 263.51,732.04 C255.69,729.46 253.42,726.54 256.25,722.68 C257.68,720.73 270.49,719.93 308.00,719.45 C338.16,719.06 338.30,719.04 341.93,715.56 C344.57,713.04 345.00,711.91 345.00,707.55 C345.00,703.51 344.49,701.93 342.46,699.74 L 339.92 697.00 L 322.21 696.88 C292.17,696.67 286.51,696.15 272.50,692.31 C267.61,690.97 265.48,689.65 261.01,685.18 L 255.52 679.69 L 255.16 672.49 L 254.80 665.30 L 260.46 659.50 C265.84,653.99 266.57,653.58 275.31,651.36 C286.90,648.41 308.79,647.93 311.43,650.57 C315.42,654.56 310.68,662.79 305.27,661.27 C302.31,660.45 290.78,660.39 282.35,661.16 C274.34,661.90 272.27,663.77 271.79,670.71 C271.29,678.07 271.39,678.34 275.58,680.34 C279.55,682.23 305.07,684.02 323.50,683.69 C334.69,683.50 347.08,685.15 352.50,687.57 C354.15,688.30 356.84,690.60 358.47,692.67 C361.19,696.13 361.46,697.19 361.70,705.32 C361.86,710.46 361.50,715.10 360.85,716.35 C358.52,720.82 350.79,729.00 348.89,729.00 C347.82,729.00 345.37,729.65 343.47,730.45 C341.56,731.25 337.18,732.12 333.75,732.40 ZM 767.50 719.43 C769.15,720.20 770.53,720.87 770.57,720.92 C770.60,720.96 773.25,720.52 776.45,719.92 C781.62,718.97 789.35,715.12 791.15,712.60 C792.16,711.20 791.17,690.91 790.03,689.54 C787.65,686.67 780.50,685.92 751.59,685.51 C726.71,685.16 721.98,685.32 720.96,686.55 C720.14,687.53 717.76,688.00 713.53,688.00 C708.18,688.00 706.71,688.43 703.11,691.03 C698.42,694.43 697.00,697.25 697.00,703.16 C697.00,709.98 699.53,713.82 705.90,716.64 C710.87,718.84 713.01,719.14 725.00,719.29 C732.42,719.38 744.35,719.13 751.50,718.74 C761.76,718.17 765.13,718.32 767.50,719.43 ZM 390.75 682.60 L 393.65 685.50 L 432.58 685.31 L 471.50 685.11 L 474.23 682.07 C476.41,679.62 476.84,678.38 476.38,675.76 C475.33,669.72 473.85,665.99 472.17,665.14 C467.67,662.85 455.92,661.56 436.50,661.23 C404.60,660.69 403.46,660.75 398.06,663.07 C391.50,665.89 389.34,668.50 388.53,674.60 C387.90,679.33 388.07,679.91 390.75,682.60 ZM 168.77 729.73 C168.07,730.28 165.65,731.01 163.39,731.35 C158.72,732.06 157.50,731.11 154.65,724.50 C153.09,720.87 153.01,718.29 153.86,696.50 C154.38,683.30 155.23,670.70 155.75,668.50 C157.36,661.80 160.07,657.20 162.83,656.51 C164.23,656.16 166.61,654.82 168.13,653.55 C170.14,651.85 173.27,650.86 179.69,649.90 C199.49,646.92 210.85,649.80 207.08,656.84 C205.69,659.44 204.53,659.78 194.32,660.55 C183.29,661.37 175.36,663.55 172.34,666.57 C170.02,668.89 170.00,669.16 169.79,694.20 C169.67,708.12 169.68,721.58 169.80,724.11 C169.94,726.90 169.53,729.12 168.77,729.73 ZM 237.31 730.75 C236.38,731.44 233.73,732.00 231.43,732.00 C229.13,732.00 226.80,731.44 226.25,730.75 C223.95,727.88 223.00,715.12 223.00,687.29 C223.00,663.15 223.24,658.04 224.45,657.04 C225.82,655.91 231.43,654.82 237.00,654.60 L 239.50 654.50 L 239.25 692.00 C239.03,725.92 238.85,729.62 237.31,730.75 ZM 239.66 630.43 C238.84,632.59 237.28,632.40 235.99,629.99 C235.14,628.39 235.25,627.84 236.52,627.35 C238.58,626.56 240.45,628.39 239.66,630.43 ZM 226.46 638.74 C227.27,640.87 225.70,642.30 224.20,640.80 C222.49,639.09 222.66,635.93 224.42,636.61 C225.21,636.91 226.12,637.87 226.46,638.74 ZM 226.42 630.39 C224.07,631.29 223.82,631.17 224.19,629.26 C224.60,627.11 228.00,626.27 228.00,628.32 C228.00,629.13 227.29,630.06 226.42,630.39 Z" fill="rgb(60,149,200)"/>
<path d="M 500.75 578.37 C499.51,578.70 492.64,578.98 485.47,578.99 C475.04,579.00 471.95,578.67 469.97,577.36 C468.61,576.45 419.51,527.78 360.85,469.20 C302.20,410.61 253.15,362.09 251.85,361.38 C250.01,360.35 238.75,360.06 199.87,360.04 C158.80,360.01 150.05,359.76 149.09,358.61 C148.32,357.67 148.03,352.73 148.22,343.36 L 148.50 329.50 L 199.50 329.21 C227.55,329.06 252.07,329.21 254.00,329.55 C257.02,330.09 274.44,347.10 380.25,452.80 C447.76,520.25 503.00,575.96 503.00,576.60 C503.00,577.24 501.99,578.04 500.75,578.37 ZM 579.88 553.41 C575.14,555.94 570.44,558.00 569.43,558.00 C568.31,558.00 513.83,504.27 431.79,422.26 C328.65,319.15 296.00,285.95 296.00,284.17 C296.00,282.88 297.69,278.83 299.75,275.17 C301.81,271.51 303.96,267.61 304.53,266.51 C305.09,265.40 306.44,264.38 307.53,264.23 C308.98,264.02 346.56,301.01 450.48,404.96 C573.90,528.40 591.28,546.14 589.98,547.40 C589.17,548.18 584.62,550.89 579.88,553.41 ZM 659.80 473.73 C656.87,479.09 653.80,483.60 652.98,483.76 C650.74,484.18 369.56,202.60 370.29,200.68 C370.92,199.05 388.57,189.04 390.86,189.02 C392.55,189.00 663.76,459.68 664.56,462.18 C664.91,463.29 663.09,467.71 659.80,473.73 ZM 495.93 576.14 C497.09,573.96 496.06,572.37 491.36,569.17 C489.64,567.99 486.84,564.87 485.15,562.23 C483.45,559.59 480.12,556.06 477.74,554.38 C475.35,552.70 471.62,549.05 469.45,546.28 C467.28,543.50 463.55,539.99 461.16,538.47 C458.78,536.95 455.23,533.31 453.28,530.37 C451.17,527.19 447.97,524.00 445.34,522.46 C442.71,520.92 439.51,517.72 437.38,514.51 C435.41,511.56 432.06,507.98 429.93,506.57 C427.80,505.16 424.19,501.65 421.91,498.77 C419.64,495.89 415.62,491.95 412.98,490.02 C410.35,488.08 406.91,484.59 405.35,482.26 C403.78,479.93 400.25,476.51 397.50,474.66 C394.75,472.81 390.97,469.06 389.11,466.31 C387.24,463.57 383.71,460.06 381.27,458.52 C378.82,456.97 375.24,453.31 373.28,450.37 C371.19,447.22 367.97,444.00 365.40,442.50 C363.02,441.10 359.74,438.05 358.11,435.73 C356.49,433.40 353.67,430.38 351.84,429.00 C350.02,427.62 346.72,424.56 344.51,422.20 C340.63,418.04 325.42,402.19 321.65,398.37 C320.63,397.34 315.55,392.45 310.37,387.50 C305.19,382.55 299.27,376.80 297.22,374.72 C295.17,372.64 291.25,368.73 288.50,366.03 C282.67,360.30 279.17,356.74 274.07,351.37 C272.04,349.24 266.72,344.01 262.25,339.75 C254.77,332.62 253.77,331.99 249.81,331.91 C226.22,331.44 155.13,331.18 153.86,331.57 C151.05,332.42 149.76,337.40 150.15,345.94 C150.19,346.92 150.21,347.83 150.22,348.66 C150.25,351.06 150.27,352.82 151.07,354.10 C153.21,357.57 160.97,357.57 189.76,357.56 C193.42,357.56 197.42,357.56 201.79,357.56 L 249.50 357.62 L 254.72 360.30 C257.59,361.77 260.72,364.22 261.69,365.74 C262.65,367.26 265.70,370.61 268.47,373.19 C271.24,375.77 274.58,378.97 275.89,380.30 C277.21,381.63 280.76,385.19 283.78,388.22 C286.81,391.24 290.36,394.79 291.68,396.11 C292.99,397.42 295.94,400.67 298.22,403.31 C300.50,405.96 303.86,408.75 305.68,409.51 C307.59,410.31 309.50,412.09 310.18,413.70 C311.87,417.69 317.94,423.92 321.68,425.50 C323.50,426.26 325.59,428.27 326.55,430.17 C328.87,434.76 332.82,438.84 337.11,441.04 C339.16,442.10 341.41,444.33 342.30,446.20 C344.18,450.16 349.29,455.17 353.73,457.40 C355.51,458.30 357.69,460.43 358.57,462.14 C360.63,466.12 365.88,471.37 369.86,473.43 C371.57,474.31 373.70,476.49 374.60,478.27 C376.90,482.83 380.87,486.86 385.33,489.15 C387.67,490.36 389.67,492.35 390.50,494.31 C392.16,498.23 398.53,504.52 402.27,505.92 C403.82,506.51 405.49,508.18 406.08,509.73 C407.50,513.51 413.80,519.93 417.74,521.63 C419.72,522.48 421.52,524.28 422.37,526.26 C424.06,530.18 430.49,536.50 434.22,537.90 C435.82,538.51 437.51,540.28 438.32,542.21 C440.24,546.76 445.13,551.74 449.48,553.56 C451.94,554.58 453.59,556.16 454.51,558.37 C455.90,561.70 463.13,569.00 465.04,569.00 C465.60,569.00 467.64,570.58 469.57,572.50 C472.54,575.48 473.77,576.01 477.78,576.07 C480.38,576.11 483.40,576.53 484.50,577.00 C485.60,577.47 488.40,577.89 490.71,577.93 C493.85,577.98 495.19,577.52 495.93,576.14 ZM 535.43 571.85 C531.54,573.03 527.56,574.00 526.58,574.00 C524.15,574.00 280.00,329.89 280.00,327.46 C280.00,326.45 281.18,321.77 282.61,317.06 C284.05,312.35 285.55,307.38 285.95,306.00 C286.34,304.62 287.30,303.38 288.08,303.24 C289.62,302.95 551.00,563.80 551.00,565.62 C551.00,566.77 547.38,568.22 535.43,571.85 ZM 673.52 443.96 C673.17,444.53 672.57,445.00 672.19,445.00 C671.81,445.00 612.33,385.84 540.02,313.52 C454.93,228.43 408.90,181.71 409.53,181.08 C410.54,180.07 434.00,172.70 434.58,173.21 C434.76,173.37 490.05,228.55 557.45,295.82 C645.21,383.42 680.00,418.77 680.00,420.33 C680.00,422.60 674.64,442.16 673.52,443.96 ZM 783.93 732.51 C774.79,734.44 715.54,734.51 707.00,732.61 C695.35,730.01 684.74,722.81 682.06,715.68 C680.69,712.03 680.69,692.96 682.06,689.32 C683.59,685.26 688.77,680.20 694.23,677.40 C704.09,672.36 707.64,672.00 747.46,671.98 C767.83,671.98 785.12,671.58 785.87,671.10 C790.90,667.92 778.85,663.98 762.00,663.31 C754.09,662.99 748.72,662.32 747.39,661.47 C742.88,658.62 743.85,648.58 748.76,647.35 C752.00,646.53 775.47,647.66 783.86,649.04 C791.22,650.24 798.34,653.59 802.20,657.66 C807.56,663.31 808.00,665.88 807.98,691.22 C807.96,711.74 807.74,714.97 806.10,718.50 C802.53,726.21 796.87,729.79 783.93,732.51 ZM 577.40 553.51 C578.30,552.14 580.82,550.11 583.01,548.99 C585.21,547.87 587.00,546.36 587.00,545.62 C587.00,544.27 578.42,535.97 573.63,532.70 C572.18,531.71 570.11,529.23 569.04,527.20 C567.96,525.16 565.42,522.38 563.40,521.00 C559.53,518.38 557.12,516.03 550.50,508.43 C548.30,505.91 544.79,502.73 542.70,501.38 C540.61,500.02 538.63,498.15 538.30,497.21 C537.97,496.27 535.18,493.15 532.10,490.27 C524.13,482.82 523.08,481.76 517.50,475.49 C514.75,472.40 511.51,469.47 510.30,468.98 C509.09,468.49 507.33,466.83 506.37,465.29 C503.74,461.03 497.76,454.91 495.30,453.95 C494.09,453.48 492.33,451.83 491.38,450.29 C489.11,446.63 480.85,438.00 479.60,438.00 C478.16,438.00 474.00,433.85 474.00,432.41 C474.00,431.73 470.40,428.17 466.00,424.50 C461.60,420.83 458.00,417.42 458.00,416.92 C458.00,416.41 456.42,414.33 454.50,412.29 C452.58,410.25 451.00,408.28 451.00,407.91 C451.00,407.54 449.62,406.67 447.92,405.97 C446.23,405.27 444.13,403.52 443.25,402.10 C440.89,398.27 432.77,390.00 431.36,390.00 C430.70,390.00 429.11,388.63 427.83,386.95 C422.49,379.94 418.29,375.58 414.72,373.32 C412.63,372.00 410.54,369.93 410.08,368.71 C409.62,367.49 406.82,364.36 403.87,361.75 C396.64,355.37 395.64,354.36 390.31,348.05 C387.78,345.05 384.32,341.90 382.62,341.05 C380.92,340.20 378.99,338.40 378.32,337.05 C376.63,333.62 372.31,329.22 367.86,326.41 C365.79,325.10 363.55,323.01 362.90,321.76 C361.37,318.85 353.01,310.52 350.81,309.72 C349.88,309.38 348.32,307.85 347.35,306.30 C345.01,302.58 336.94,294.50 334.79,293.72 C333.85,293.37 332.00,291.39 330.66,289.30 C328.22,285.46 326.89,284.17 319.32,278.22 C316.79,276.24 314.89,273.80 314.50,272.02 C313.45,267.21 307.51,266.74 305.13,271.27 C304.49,272.50 302.84,275.03 301.48,276.90 C300.12,278.77 299.00,281.31 299.00,282.54 C299.00,285.30 304.81,291.94 318.48,304.81 C321.22,307.39 324.23,310.70 325.16,312.16 C326.10,313.62 327.68,315.10 328.68,315.43 C329.68,315.77 331.62,317.58 333.00,319.46 C334.38,321.34 336.52,323.35 337.77,323.92 C339.02,324.50 340.47,326.11 341.00,327.49 C341.52,328.87 342.42,330.00 342.99,330.00 C344.16,330.00 355.20,341.14 357.47,344.60 C358.28,345.84 359.75,347.12 360.72,347.45 C361.70,347.77 363.62,349.60 365.00,351.50 C366.38,353.40 368.29,355.22 369.26,355.55 C370.23,355.88 371.71,357.48 372.56,359.11 C373.40,360.75 375.19,362.59 376.53,363.20 C377.87,363.80 379.20,365.02 379.50,365.90 C379.80,366.78 381.62,368.62 383.56,370.00 C385.49,371.38 387.74,373.73 388.56,375.23 C389.37,376.74 391.38,378.66 393.02,379.51 C394.66,380.36 396.00,381.69 396.00,382.46 C396.00,383.24 397.79,385.14 399.99,386.69 C402.18,388.23 404.24,390.30 404.56,391.28 C404.89,392.25 406.35,393.83 407.82,394.78 C409.28,395.72 412.73,398.93 415.49,401.90 C418.25,404.87 421.49,408.24 422.70,409.40 C423.91,410.55 427.51,414.15 430.70,417.38 C437.98,424.76 439.37,426.16 446.62,433.30 C449.85,436.49 453.44,440.04 454.59,441.21 C455.74,442.37 459.42,446.06 462.77,449.41 C466.12,452.76 469.73,456.40 470.79,457.50 C471.85,458.60 475.60,462.28 479.11,465.68 C482.63,469.08 486.08,472.46 486.78,473.18 C487.49,473.91 490.65,477.00 493.79,480.06 C496.94,483.11 500.31,486.83 501.28,488.31 C502.25,489.79 503.60,491.01 504.27,491.02 C504.95,491.03 508.20,494.01 511.50,497.64 C514.80,501.27 518.28,504.98 519.23,505.87 C520.18,506.77 523.56,510.15 526.73,513.39 C529.90,516.63 533.53,520.23 534.80,521.39 C541.80,527.81 548.15,534.29 549.59,536.50 C550.49,537.87 551.77,539.00 552.43,539.00 C553.09,539.00 554.99,540.46 556.64,542.25 C558.30,544.04 561.65,547.34 564.08,549.59 C571.73,556.67 574.75,557.56 577.40,553.51 ZM 657.35 474.36 C659.34,471.81 661.24,468.24 661.58,466.43 C662.17,463.27 661.67,462.61 649.17,450.32 C642.01,443.27 635.55,436.87 634.82,436.09 C634.09,435.32 630.35,431.59 626.50,427.80 C622.65,424.01 619.20,420.59 618.84,420.20 C618.29,419.62 609.97,411.28 603.51,404.83 C602.59,403.92 598.91,400.24 595.33,396.67 L 579.33 380.67 C575.76,377.09 572.21,373.57 571.46,372.83 C570.70,372.10 567.18,368.58 563.63,365.00 C560.08,361.42 556.43,357.75 555.51,356.83 C554.59,355.92 550.91,352.24 547.33,348.67 L 515.33 316.67 C511.76,313.09 508.08,309.41 507.17,308.48 C506.25,307.55 502.58,303.90 499.00,300.37 C495.42,296.84 491.90,293.32 491.17,292.56 C490.43,291.79 486.91,288.24 483.33,284.67 L 459.33 260.67 L 451.33 252.67 L 411.33 212.67 C401.29,202.62 396.07,197.44 393.96,195.43 C391.40,192.98 387.60,192.21 386.54,193.93 C386.22,194.45 383.55,195.57 380.59,196.43 C374.89,198.09 373.80,199.28 375.02,202.50 C375.88,204.77 386.34,215.76 389.75,217.98 C390.99,218.78 392.00,219.85 392.00,220.36 C392.00,221.03 413.05,242.30 421.20,249.85 C421.58,250.21 425.00,253.65 428.80,257.50 C432.59,261.35 436.19,264.95 436.80,265.50 C437.40,266.05 441.02,269.65 444.85,273.50 C448.67,277.35 452.63,281.31 453.65,282.30 C454.67,283.28 458.29,286.88 461.70,290.30 C465.12,293.71 468.61,297.17 469.46,298.00 C471.20,299.68 483.74,312.20 485.86,314.38 C486.61,315.15 490.15,318.70 493.72,322.28 C497.30,325.85 500.88,329.47 501.69,330.31 C503.30,331.97 515.33,344.02 517.53,346.17 C518.29,346.90 521.81,350.42 525.37,354.00 C528.93,357.58 532.55,361.17 533.43,362.00 C534.30,362.83 537.15,365.92 539.76,368.87 C542.37,371.82 546.19,375.31 548.25,376.63 C550.31,377.95 552.00,379.65 552.00,380.40 C552.00,381.16 554.81,384.30 558.25,387.36 C561.69,390.43 565.17,393.68 566.00,394.57 C566.83,395.47 570.65,399.33 574.50,403.15 C578.35,406.98 581.95,410.59 582.50,411.18 C583.38,412.13 593.87,422.53 598.00,426.56 C599.59,428.11 609.92,438.32 613.82,442.20 C615.09,443.46 618.79,447.20 622.04,450.50 C625.29,453.80 628.97,457.46 630.22,458.64 C631.47,459.82 636.33,464.85 641.00,469.83 C646.33,475.51 650.29,478.90 651.62,478.94 C652.99,478.98 655.00,477.37 657.35,474.36 ZM 783.74 730.63 C787.18,729.67 791.23,728.24 792.74,727.45 C794.26,726.66 795.95,726.00 796.50,725.99 C797.05,725.97 798.93,724.24 800.68,722.14 C803.13,719.18 804.14,716.63 805.13,710.90 C806.68,701.86 806.86,675.17 805.41,669.00 C803.99,662.97 799.50,656.00 797.04,656.00 C795.98,656.00 793.63,655.12 791.81,654.05 C786.45,650.89 754.50,648.07 749.92,650.35 C746.93,651.85 746.37,654.39 748.38,657.45 C749.76,659.57 750.85,659.86 759.21,660.33 C764.32,660.62 772.08,661.51 776.45,662.31 C783.08,663.53 784.79,664.25 786.70,666.64 C787.96,668.21 788.99,669.85 789.00,670.27 C789.01,672.43 781.36,672.98 750.93,673.03 C730.60,673.06 716.88,673.48 715.21,674.12 C713.72,674.69 709.01,675.78 704.75,676.53 C692.06,678.78 684.00,685.90 684.00,694.85 C684.00,697.12 683.47,700.96 682.82,703.40 C681.75,707.40 681.87,708.34 684.08,713.23 C686.67,718.97 695.66,727.99 698.78,728.01 C699.73,728.01 701.79,728.68 703.36,729.51 C704.94,730.33 708.09,731.05 710.36,731.12 C712.64,731.18 715.85,731.60 717.50,732.04 C719.15,732.48 733.33,732.74 749.00,732.61 C772.55,732.42 778.58,732.07 783.74,730.63 ZM 436.44 731.78 C435.01,733.82 434.15,733.99 425.69,733.84 C416.00,733.67 414.98,733.60 400.18,731.98 C385.82,730.41 379.85,726.75 374.61,716.28 C372.04,711.15 372.00,710.74 372.00,689.60 C372.00,676.92 372.43,666.98 373.06,665.32 C375.58,658.62 384.67,651.98 396.00,648.57 C403.36,646.35 427.24,645.57 451.58,646.77 L 470.67 647.70 L 478.40 651.42 C489.53,656.78 491.48,660.10 492.31,675.20 C493.01,687.86 492.02,697.74 489.90,699.08 C489.13,699.57 466.79,699.98 440.25,699.98 L 392.00 700.00 L 392.00 702.69 C392.00,706.46 395.83,711.63 399.99,713.46 C404.75,715.57 412.39,716.88 424.33,717.67 C432.10,718.18 434.73,718.73 436.16,720.16 C438.44,722.44 438.60,728.70 436.44,731.78 ZM 681.49 332.00 C682.79,338.33 683.54,343.82 683.16,344.22 C682.43,344.97 510.90,174.20 510.16,171.99 C509.84,171.02 510.80,170.86 514.12,171.33 C534.17,174.18 560.44,183.08 579.54,193.49 C587.95,198.08 601.69,207.07 606.57,211.17 C625.37,227.00 636.78,239.07 647.47,254.44 C665.75,280.73 675.51,302.98 681.49,332.00 ZM 675.05 431.00 C677.75,420.27 677.66,419.71 672.13,413.86 C664.42,405.69 663.93,405.21 657.45,399.15 C654.12,396.04 651.10,392.71 650.73,391.74 C650.36,390.77 648.97,389.49 647.64,388.88 C646.31,388.28 644.72,386.69 644.12,385.36 C643.51,384.03 641.46,382.02 639.55,380.90 C637.65,379.77 635.81,377.98 635.47,376.90 C635.13,375.83 633.72,374.21 632.34,373.30 C629.50,371.44 619.00,361.39 619.00,360.53 C619.00,359.56 600.07,341.00 599.08,341.00 C598.56,341.00 597.13,339.54 595.89,337.75 C594.66,335.96 591.14,332.13 588.07,329.23 C577.00,318.76 572.08,313.77 570.58,311.48 C569.74,310.20 568.19,308.88 567.14,308.54 C566.09,308.21 564.00,306.17 562.50,304.00 C561.00,301.83 558.99,299.81 558.04,299.51 C557.08,299.21 555.79,297.84 555.16,296.46 C554.54,295.09 552.98,293.56 551.71,293.08 C550.44,292.60 548.30,290.60 546.95,288.64 C545.61,286.68 543.55,284.56 542.37,283.93 C541.19,283.30 539.73,281.70 539.13,280.38 C538.52,279.05 536.90,277.45 535.51,276.82 C534.13,276.19 533.00,275.41 533.00,275.09 C533.00,274.02 528.54,269.48 525.75,267.70 C524.24,266.74 523.00,265.47 523.00,264.88 C523.00,264.28 519.96,260.94 516.25,257.46 C512.54,253.97 509.12,250.68 508.66,250.15 C507.64,248.96 503.36,244.76 501.14,242.75 C500.24,241.94 497.02,238.52 494.00,235.16 C490.98,231.80 487.94,229.04 487.26,229.02 C486.58,229.01 484.88,227.18 483.48,224.96 C482.07,222.74 479.87,220.44 478.57,219.85 C477.28,219.26 475.74,217.73 475.15,216.44 C474.57,215.15 472.72,213.39 471.04,212.52 C469.37,211.66 468.00,210.61 468.00,210.20 C468.00,208.93 456.34,197.00 455.10,197.00 C454.46,197.00 452.99,195.41 451.85,193.46 C450.70,191.52 448.50,189.27 446.95,188.47 C445.41,187.68 443.88,186.23 443.56,185.26 C443.23,184.29 440.72,182.07 437.97,180.31 C433.36,177.38 432.59,177.20 428.23,178.00 C421.13,179.32 414.59,181.34 413.80,182.47 C413.01,183.59 416.73,188.00 418.47,188.00 C419.09,188.00 422.19,191.15 425.36,195.00 C428.53,198.85 431.70,202.00 432.42,202.00 C433.13,202.00 436.55,205.38 440.02,209.52 C443.48,213.66 447.47,217.59 448.88,218.27 C450.29,218.95 451.95,220.52 452.57,221.76 C454.16,224.96 462.08,232.97 464.70,234.02 C465.91,234.51 467.69,236.17 468.65,237.71 C470.99,241.42 479.06,249.50 481.21,250.28 C482.15,250.63 484.03,252.61 485.39,254.70 C488.14,258.92 494.03,264.70 498.26,267.34 C499.78,268.28 501.58,270.36 502.26,271.96 C503.37,274.56 514.23,284.00 516.11,284.00 C516.52,284.00 517.16,284.93 517.52,286.07 C518.30,288.51 526.34,296.91 530.17,299.29 C531.64,300.19 534.95,303.68 537.53,307.04 C540.11,310.39 543.28,313.54 544.57,314.03 C545.87,314.52 548.05,316.63 549.42,318.71 C550.79,320.80 553.75,324.08 556.00,326.00 C558.25,327.92 561.19,330.62 562.55,332.00 C565.09,334.58 574.75,344.23 578.80,348.23 C580.07,349.48 583.75,353.20 586.99,356.50 C590.23,359.80 593.82,363.40 594.96,364.50 C596.10,365.60 599.39,369.00 602.27,372.06 C605.15,375.12 608.76,378.41 610.29,379.36 C611.83,380.32 613.49,382.09 613.98,383.30 C614.97,385.78 622.05,392.70 626.30,395.36 C627.85,396.33 629.38,397.88 629.71,398.81 C630.03,399.74 632.82,402.85 635.90,405.73 C642.35,411.76 643.48,412.89 651.17,421.01 C654.29,424.31 657.30,427.00 657.87,427.00 C658.43,427.00 660.56,429.52 662.60,432.59 C667.07,439.33 669.76,440.74 672.21,437.65 C673.15,436.47 674.43,433.48 675.05,431.00 ZM 534.50 570.00 C536.15,568.91 539.10,568.01 541.05,568.01 C544.31,568.00 547.00,566.60 547.00,564.91 C547.00,564.53 507.74,525.02 459.75,477.12 C411.76,429.21 372.05,389.54 371.50,388.96 C370.95,388.38 360.15,377.60 347.50,365.01 C334.85,352.42 324.17,341.75 323.77,341.31 C318.32,335.24 300.78,318.00 300.06,318.00 C299.53,318.00 297.88,316.40 296.40,314.45 C291.09,307.50 287.92,307.78 285.94,315.37 C285.34,317.64 284.17,320.03 283.33,320.68 C281.52,322.09 282.30,327.17 284.63,329.11 C285.46,329.79 286.79,331.62 287.59,333.18 C288.39,334.73 289.40,336.00 289.83,336.00 C291.22,336.00 304.02,348.45 304.01,349.78 C304.01,350.49 304.79,351.35 305.75,351.69 C308.20,352.58 319.96,364.22 319.98,365.78 C319.99,366.49 320.79,367.35 321.75,367.69 C324.20,368.58 335.96,380.22 335.98,381.78 C335.99,382.49 336.71,383.34 337.58,383.67 C339.82,384.53 352.00,396.58 352.00,397.93 C352.00,398.55 352.79,399.35 353.75,399.69 C356.20,400.58 367.96,412.22 367.98,413.78 C367.99,414.49 368.79,415.34 369.75,415.67 C372.22,416.53 384.00,428.17 384.00,429.75 C384.00,430.47 384.79,431.35 385.75,431.69 C388.20,432.58 399.96,444.22 399.98,445.78 C399.99,446.49 400.79,447.34 401.75,447.67 C404.22,448.53 416.00,460.17 416.00,461.75 C416.00,462.47 416.79,463.35 417.75,463.70 C420.27,464.62 432.00,476.18 432.00,477.74 C432.00,478.47 432.79,479.35 433.75,479.69 C436.20,480.58 447.96,492.22 447.98,493.78 C447.99,494.49 448.79,495.35 449.75,495.70 C452.27,496.62 464.00,508.18 464.00,509.74 C464.00,510.47 464.79,511.35 465.75,511.70 C468.27,512.62 480.00,524.18 480.00,525.74 C480.00,526.47 480.79,527.36 481.75,527.72 C484.27,528.66 496.00,540.23 496.00,541.77 C496.00,542.48 496.79,543.34 497.75,543.69 C500.30,544.60 511.00,555.12 512.05,557.75 C512.55,558.99 513.61,560.00 514.41,560.00 C515.21,560.00 516.13,560.83 516.45,561.84 C517.23,564.30 520.63,567.33 525.49,569.89 C530.37,572.47 530.76,572.48 534.50,570.00 ZM 520.00 732.00 C517.50,734.50 507.02,734.87 504.68,732.54 C502.69,730.55 501.77,712.59 502.42,688.50 C503.07,664.56 504.28,660.07 511.60,654.49 C516.45,650.79 521.20,649.22 532.90,647.46 C550.03,644.88 564.96,645.85 578.44,650.43 C583.51,652.15 590.06,652.50 591.55,651.13 C592.07,650.65 595.88,649.41 600.00,648.38 C605.90,646.90 610.84,646.53 623.17,646.63 C644.74,646.81 654.28,649.42 661.70,657.16 C667.83,663.56 668.00,664.70 668.00,699.41 C668.00,730.80 667.99,730.89 665.78,732.44 C662.55,734.71 653.84,734.50 650.86,732.09 L 648.50 730.18 L 648.00 699.50 C647.50,669.05 647.48,668.81 645.22,666.97 C641.40,663.88 632.72,662.70 618.00,663.26 C608.01,663.64 602.47,663.56 599.37,666.27 C595.19,669.90 595.42,678.59 595.14,700.23 C594.85,723.57 594.90,730.49 591.80,732.49 C590.49,733.33 588.62,733.31 585.94,733.28 C585.65,733.27 585.36,733.27 585.06,733.27 C581.62,733.23 578.32,732.72 577.73,732.13 C575.82,730.22 575.15,721.05 575.07,695.68 C574.98,664.50 575.03,664.63 562.00,663.53 C552.92,662.75 530.49,664.36 526.78,666.06 C525.30,666.73 523.63,668.63 523.05,670.29 C522.41,672.12 522.00,684.43 522.00,701.65 C522.00,728.67 521.91,730.09 520.00,732.00 ZM 433.37 730.14 C435.51,727.90 435.96,726.70 435.44,724.63 C435.08,723.17 434.45,721.78 434.05,721.53 C432.57,720.62 418.38,718.18 415.00,718.26 C409.87,718.38 396.87,716.13 395.33,714.86 C394.60,714.25 394.00,713.31 394.00,712.77 C394.00,712.23 392.88,710.45 391.50,708.82 C388.51,705.26 388.30,701.94 390.93,699.56 C392.71,697.95 396.63,697.80 439.52,697.66 L 486.18 697.50 L 488.14 695.07 C489.92,692.87 490.09,691.31 489.84,678.74 C489.62,666.81 489.29,664.36 487.54,661.49 C485.30,657.80 478.89,653.00 476.21,653.00 C475.27,652.99 473.15,652.17 471.49,651.16 C468.84,649.54 465.06,649.24 439.15,648.62 C419.28,648.15 409.40,648.26 408.55,648.96 C407.86,649.53 404.60,650.21 401.32,650.47 C392.82,651.13 383.52,655.66 378.59,661.54 L 374.68 666.20 L 374.20 686.17 C373.63,709.96 374.59,714.55 381.69,722.00 C387.04,727.62 392.40,729.32 411.00,731.29 L 412.06 731.41 L 412.06 731.41 C426.23,732.92 429.39,733.25 431.46,731.90 C432.10,731.48 432.64,730.90 433.37,730.14 ZM 679.53 332.61 C679.17,330.90 678.48,327.48 677.99,325.00 C677.04,320.14 673.61,309.44 671.38,304.35 C670.62,302.62 670.00,300.63 670.00,299.94 C670.00,297.73 657.71,273.61 655.14,270.77 C652.55,267.91 650.32,264.40 644.85,254.60 C643.04,251.36 640.20,247.88 638.53,246.86 C636.87,245.85 633.47,241.98 630.98,238.26 C628.49,234.55 625.22,230.91 623.70,230.18 C622.18,229.46 619.85,227.13 618.51,225.02 C617.18,222.91 614.27,220.15 612.04,218.90 C609.82,217.65 608.00,216.31 608.00,215.92 C608.00,215.54 606.86,214.93 605.47,214.58 C604.07,214.23 602.43,212.84 601.81,211.49 C601.20,210.14 599.85,208.77 598.82,208.44 C597.78,208.11 595.71,206.71 594.22,205.32 C592.72,203.93 590.15,202.11 588.50,201.28 C586.85,200.44 582.92,198.01 579.76,195.88 C576.61,193.75 573.41,192.00 572.67,192.00 C571.92,192.00 570.54,191.15 569.59,190.10 C568.60,189.00 564.64,187.46 560.19,186.44 C555.96,185.47 550.92,183.92 549.00,182.99 C547.08,182.06 542.35,180.57 538.50,179.68 C521.01,175.62 519.00,175.34 519.00,176.91 C519.00,177.81 524.64,183.71 531.11,189.58 C536.68,194.63 545.00,204.21 545.00,205.59 C545.00,206.29 546.01,207.19 547.25,207.58 C549.97,208.44 558.90,217.59 560.10,220.76 C560.58,222.01 562.01,223.43 563.29,223.92 C566.47,225.13 574.82,233.39 576.00,236.50 C576.53,237.89 578.11,239.47 579.50,240.00 C582.61,241.18 590.87,249.53 592.08,252.71 C592.57,253.99 594.01,255.43 595.29,255.92 C598.47,257.13 606.82,265.39 608.00,268.50 C608.53,269.89 610.11,271.47 611.50,272.00 C614.61,273.18 622.87,281.53 624.08,284.71 C624.57,285.99 626.04,287.44 627.35,287.94 C630.35,289.08 640.00,298.79 640.00,300.66 C640.00,301.42 641.24,302.57 642.75,303.21 C646.27,304.71 657.00,315.44 657.00,317.46 C657.00,318.31 657.70,319.00 658.57,319.00 C659.43,319.00 662.61,321.48 665.63,324.50 C668.66,327.52 671.56,330.00 672.09,330.00 C672.61,330.00 673.59,331.24 674.25,332.75 C675.72,336.10 676.87,336.99 678.76,336.26 C679.79,335.87 680.01,334.84 679.53,332.61 ZM 517.64 731.49 C519.53,730.92 520.19,722.85 520.64,694.90 C521.06,668.52 521.08,668.27 523.41,666.08 C527.77,661.99 541.08,660.69 566.67,661.86 C571.19,662.06 575.60,666.11 576.34,670.73 C576.67,672.80 576.99,686.75 577.05,701.73 L 577.16 728.97 L 580.83 729.93 C582.85,730.46 586.08,730.56 588.00,730.16 C591.37,729.45 591.53,729.21 592.16,723.96 C592.53,720.96 592.98,707.85 593.16,694.82 C593.58,665.29 593.53,665.40 609.10,661.39 C618.55,658.95 639.85,660.06 644.36,663.22 C645.80,664.23 646.87,664.94 647.67,665.88 C649.99,668.61 649.97,673.31 649.91,693.30 L 649.91 695.51 C649.80,730.32 650.71,733.24 661.05,731.49 C662.22,731.29 663.16,731.15 663.91,730.69 C666.87,728.85 666.76,722.04 666.16,687.08 L 666.14 686.12 L 665.79 665.75 L 662.27 661.12 C660.03,658.18 657.25,655.91 654.63,654.86 C652.36,653.96 648.92,652.34 647.00,651.25 C643.93,649.52 641.40,649.25 626.50,649.11 C613.74,648.99 608.13,649.34 604.00,650.51 C588.30,654.95 585.99,655.19 579.00,653.11 C559.42,647.30 558.02,647.07 548.00,648.03 C542.78,648.52 536.70,649.39 534.50,649.94 C532.30,650.50 528.47,650.98 526.00,651.02 C519.88,651.11 515.57,653.64 509.95,660.46 L 505.21 666.21 L 504.51 685.35 C504.13,695.88 504.07,708.78 504.39,714.00 C504.70,719.22 505.00,725.06 505.04,726.97 C505.15,732.03 506.41,733.03 511.85,732.38 C514.41,732.08 517.01,731.68 517.64,731.49 ZM 340.98 732.93 C337.26,733.54 318.07,733.99 295.90,733.99 C293.93,733.99 292.04,733.99 290.25,734.00 C263.16,734.01 256.27,734.02 254.54,731.03 C253.96,730.02 253.97,728.65 253.99,726.82 C254.00,726.46 254.00,726.09 254.00,725.69 C254.00,725.51 254.00,725.33 254.00,725.16 C253.99,723.49 253.99,722.22 254.53,721.24 C256.29,718.05 263.90,718.09 296.50,717.82 C332.16,717.52 334.74,717.38 338.46,715.50 C344.98,712.21 345.46,704.32 339.39,700.34 C337.05,698.80 333.07,698.47 309.44,697.87 C280.72,697.15 273.66,696.27 265.44,692.41 C259.09,689.43 256.63,686.77 254.60,680.72 C251.45,671.29 253.53,659.71 259.24,654.96 C264.81,650.31 279.90,647.12 298.04,646.75 C313.84,646.43 316.00,647.41 316.00,654.87 C316.00,662.47 315.36,662.73 295.31,663.17 L 278.12 663.55 L 275.53 666.52 C273.62,668.73 273.02,670.41 273.22,673.00 C273.46,675.98 274.10,676.79 277.50,678.47 C281.08,680.23 284.55,680.52 310.50,681.16 C345.13,682.01 351.15,683.00 357.38,688.81 C361.80,692.94 363.95,698.56 363.97,706.00 C364.01,722.04 356.92,730.35 340.98,732.93 ZM 333.75 732.40 C337.18,732.12 341.56,731.25 343.47,730.45 C345.37,729.65 347.82,729.00 348.89,729.00 C350.79,729.00 358.52,720.82 360.85,716.35 C361.50,715.10 361.86,710.46 361.70,705.32 C361.46,697.19 361.19,696.13 358.47,692.67 C356.84,690.60 354.15,688.30 352.50,687.57 C347.08,685.15 334.69,683.50 323.50,683.69 C305.07,684.02 279.55,682.23 275.58,680.34 C271.39,678.34 271.29,678.07 271.79,670.71 C272.27,663.77 274.34,661.90 282.35,661.16 C290.78,660.39 302.31,660.45 305.27,661.27 C310.68,662.79 315.42,654.56 311.43,650.57 C308.79,647.93 286.90,648.41 275.31,651.36 C266.57,653.58 265.84,653.99 260.46,659.50 L 254.80 665.30 L 255.16 672.49 L 255.52 679.69 L 261.01 685.18 C265.48,689.65 267.61,690.97 272.50,692.31 C286.51,696.15 292.17,696.67 322.21,696.88 L 339.92 697.00 L 342.46 699.74 C344.49,701.93 345.00,703.51 345.00,707.55 C345.00,711.91 344.57,713.04 341.93,715.56 C338.30,719.04 338.16,719.06 308.00,719.45 C270.49,719.93 257.68,720.73 256.25,722.68 C253.42,726.54 255.69,729.46 263.51,732.04 C269.10,733.89 271.44,733.98 298.50,733.46 C314.45,733.15 330.31,732.67 333.75,732.40 ZM 767.50 719.43 C765.13,718.32 761.76,718.17 751.50,718.74 C744.35,719.13 732.42,719.38 725.00,719.29 C713.01,719.14 710.87,718.84 705.90,716.64 C699.53,713.82 697.00,709.98 697.00,703.16 C697.00,697.25 698.42,694.43 703.11,691.03 C706.71,688.43 708.18,688.00 713.53,688.00 C717.76,688.00 720.14,687.53 720.96,686.55 C721.98,685.32 726.71,685.16 751.59,685.51 C780.50,685.92 787.65,686.67 790.03,689.54 C791.17,690.91 792.16,711.20 791.15,712.60 C789.35,715.12 781.62,718.97 776.45,719.92 C773.25,720.52 770.60,720.96 770.57,720.92 C770.53,720.87 769.15,720.20 767.50,719.43 ZM 708.10 715.21 C712.00,716.73 716.50,716.90 747.73,716.71 L 782.96 716.50 L 785.73 713.73 C788.35,711.11 788.52,710.39 788.84,700.35 C789.11,692.25 788.87,689.53 787.84,688.88 C787.11,688.41 770.91,688.02 751.86,688.02 C720.12,688.00 716.67,688.17 710.80,689.98 C702.24,692.62 699.95,695.17 699.70,702.29 C699.45,709.18 701.77,712.75 708.10,715.21 ZM 166.24 733.95 C160.06,735.67 156.34,734.75 153.61,730.85 C151.23,727.45 151.22,673.98 153.60,665.96 C157.41,653.15 171.01,647.02 195.68,647.01 C207.66,647.00 209.00,647.76 209.00,654.57 C209.00,661.66 207.39,662.59 193.84,663.25 C187.24,663.58 180.87,664.45 178.82,665.30 C172.00,668.15 172.00,668.16 172.00,700.29 C172.00,717.83 171.60,729.87 170.99,731.02 C170.43,732.06 168.29,733.38 166.24,733.95 ZM 390.75 682.60 C388.07,679.91 387.90,679.33 388.53,674.60 C389.34,668.50 391.50,665.89 398.06,663.07 C403.46,660.75 404.60,660.69 436.50,661.23 C455.92,661.56 467.67,662.85 472.17,665.14 C473.85,665.99 475.33,669.72 476.38,675.76 C476.84,678.38 476.41,679.62 474.23,682.07 L 471.50 685.11 L 432.58 685.31 L 393.65 685.50 ZM 168.77 729.73 C169.53,729.12 169.94,726.90 169.80,724.11 C169.68,721.58 169.67,708.12 169.79,694.20 C170.00,669.16 170.02,668.89 172.34,666.57 C175.36,663.55 183.29,661.37 194.32,660.55 C204.53,659.78 205.69,659.44 207.08,656.84 C210.85,649.80 199.49,646.92 179.69,649.90 C173.27,650.86 170.14,651.85 168.13,653.55 C166.61,654.82 164.23,656.16 162.83,656.51 C160.07,657.20 157.36,661.80 155.75,668.50 C155.23,670.70 154.38,683.30 153.86,696.50 C153.01,718.29 153.09,720.87 154.65,724.50 C157.50,731.11 158.72,732.06 163.39,731.35 C165.65,731.01 168.07,730.28 168.77,729.73 ZM 391.40 680.44 L 392.04 683.00 L 431.98 683.00 C470.45,683.00 471.97,682.93 472.96,681.07 C473.53,680.00 474.00,677.58 474.00,675.68 C474.00,671.19 469.41,666.59 463.40,665.08 C454.21,662.77 433.30,661.81 416.74,662.96 C400.88,664.05 395.72,665.22 393.16,668.31 C391.51,670.30 390.53,677.00 391.40,680.44 ZM 239.43 732.43 C236.99,734.87 226.58,734.58 224.00,732.00 C222.07,730.07 222.00,728.67 222.00,690.42 C222.00,659.14 222.26,650.94 223.25,651.35 C229.79,654.06 232.12,654.31 235.57,652.67 C237.49,651.75 239.50,651.00 240.03,651.00 C240.64,651.00 241.00,665.91 241.00,690.93 C241.00,725.89 240.80,731.05 239.43,732.43 ZM 237.31 730.75 C238.85,729.62 239.03,725.92 239.25,692.00 L 239.50 654.50 L 237.00 654.60 C231.43,654.82 225.82,655.91 224.45,657.04 C223.24,658.04 223.00,663.15 223.00,687.29 C223.00,715.12 223.95,727.88 226.25,730.75 C226.80,731.44 229.13,732.00 231.43,732.00 C233.73,732.00 236.38,731.44 237.31,730.75 ZM 236.99 645.51 C231.15,648.53 225.16,646.84 221.28,641.09 C218.61,637.12 218.41,634.05 220.55,629.91 C223.66,623.90 231.10,621.45 236.99,624.49 C241.19,626.67 243.00,629.83 243.00,635.00 C243.00,640.17 241.19,643.33 236.99,645.51 ZM 229.61 639.57 C230.38,642.65 231.79,642.68 232.95,639.63 C233.46,638.30 235.02,636.96 236.50,636.59 C239.65,635.80 239.33,633.78 235.93,632.99 C234.42,632.63 233.38,631.58 233.18,630.21 C232.78,627.43 230.35,627.33 229.48,630.06 C229.12,631.19 227.71,632.54 226.33,633.06 C223.41,634.17 223.70,636.36 226.83,636.82 C228.15,637.01 229.24,638.09 229.61,639.57 ZM 239.66 630.43 C240.45,628.39 238.58,626.56 236.52,627.35 C235.25,627.84 235.14,628.39 235.99,629.99 C237.28,632.40 238.84,632.59 239.66,630.43 ZM 226.46 638.74 C226.12,637.87 225.21,636.91 224.42,636.61 C222.66,635.93 222.49,639.09 224.20,640.80 C225.70,642.30 227.27,640.87 226.46,638.74 ZM 226.42 630.39 C227.29,630.06 228.00,629.13 228.00,628.32 C228.00,626.27 224.60,627.11 224.19,629.26 C223.82,631.17 224.07,631.29 226.42,630.39 Z" fill="rgb(80,147,182)"/>
<path d="M 605.03 537.32 C603.67,538.24 602.09,539.00 601.52,539.00 C600.10,539.00 315.00,253.76 315.00,252.33 C315.00,250.08 323.97,240.28 339.99,225.00 C348.94,216.48 357.11,209.35 358.15,209.18 C360.67,208.75 643.59,491.09 644.29,494.73 C644.79,497.34 639.96,504.08 630.22,514.34 C624.48,520.41 608.58,534.90 605.03,537.32 ZM 808.75 412.79 C807.58,413.76 722.57,414.96 709.09,414.19 C707.49,414.10 706.38,414.11 705.31,413.90 C701.79,413.22 698.72,410.21 680.58,393.71 C660.18,375.17 456.54,171.06 457.52,170.15 C458.06,169.66 465.25,168.99 473.50,168.67 L 488.50 168.08 L 597.00 276.40 C656.67,335.98 706.61,385.47 707.97,386.36 C710.18,387.82 715.73,388.00 759.02,388.00 C795.47,388.00 807.90,388.30 808.80,389.20 C810.49,390.89 810.45,411.38 808.75,412.79 ZM 449.68 575.49 C449.11,577.21 444.87,576.92 435.50,574.53 C409.07,567.81 386.70,558.39 368.50,546.34 C355.97,538.05 353.28,536.04 345.19,529.00 C322.85,509.53 306.65,487.84 293.65,459.98 C288.60,449.13 285.72,440.38 280.61,420.34 C276.51,404.25 276.44,403.73 278.51,404.18 C280.60,404.63 450.08,574.25 449.68,575.49 Z" fill="rgb(185,206,18)"/>
<path d="M 0.00 480.00 L 0.00 0.00 L 480.00 0.00 L 960.00 0.00 L 960.00 480.00 L 960.00 960.00 L 480.00 960.00 L 0.00 960.00 L 0.00 480.00 ZM 166.24 733.95 C168.29,733.38 170.43,732.06 170.99,731.02 C171.60,729.87 172.00,717.83 172.00,700.29 C172.00,668.16 172.00,668.15 178.82,665.30 C180.87,664.45 187.24,663.58 193.84,663.25 C207.39,662.59 209.00,661.66 209.00,654.57 C209.00,647.76 207.66,647.00 195.68,647.01 C171.01,647.02 157.41,653.15 153.60,665.96 C151.22,673.98 151.23,727.45 153.61,730.85 C156.34,734.75 160.06,735.67 166.24,733.95 ZM 239.43 732.43 C240.80,731.05 241.00,725.89 241.00,690.93 C241.00,665.91 240.64,651.00 240.03,651.00 C239.50,651.00 237.49,651.75 235.57,652.67 C232.12,654.31 229.79,654.06 223.25,651.35 C222.26,650.94 222.00,659.14 222.00,690.42 C222.00,728.67 222.07,730.07 224.00,732.00 C226.58,734.58 236.99,734.87 239.43,732.43 ZM 340.98 732.93 C356.92,730.35 364.01,722.04 363.97,706.00 C363.95,698.56 361.80,692.94 357.38,688.81 C351.15,683.00 345.13,682.01 310.50,681.16 C284.55,680.52 281.08,680.23 277.50,678.47 C274.10,676.79 273.46,675.98 273.22,673.00 C273.02,670.41 273.62,668.73 275.53,666.52 L 278.12 663.55 L 295.31 663.17 C315.36,662.73 316.00,662.47 316.00,654.87 C316.00,647.41 313.84,646.43 298.04,646.75 C279.90,647.12 264.81,650.31 259.24,654.96 C253.53,659.71 251.45,671.29 254.60,680.72 C256.63,686.77 259.09,689.43 265.44,692.41 C273.66,696.27 280.72,697.15 309.44,697.87 C333.07,698.47 337.05,698.80 339.39,700.34 C345.46,704.32 344.98,712.21 338.46,715.50 C334.74,717.38 332.16,717.52 296.50,717.82 C252.94,718.19 254.00,717.99 254.00,725.69 C254.00,734.41 251.93,734.00 295.90,733.99 C318.07,733.99 337.26,733.54 340.98,732.93 ZM 436.44 731.78 C438.60,728.70 438.44,722.44 436.16,720.16 C434.73,718.73 432.10,718.18 424.33,717.67 C412.39,716.88 404.75,715.57 399.99,713.46 C395.83,711.63 392.00,706.46 392.00,702.69 L 392.00 700.00 L 440.25 699.98 C466.79,699.98 489.13,699.57 489.90,699.08 C492.02,697.74 493.01,687.86 492.31,675.20 C491.48,660.10 489.53,656.78 478.40,651.42 L 470.67 647.70 L 451.58 646.77 C427.24,645.57 403.36,646.35 396.00,648.57 C384.67,651.98 375.58,658.62 373.06,665.32 C372.43,666.98 372.00,676.92 372.00,689.60 C372.00,710.74 372.04,711.15 374.61,716.28 C379.85,726.75 385.82,730.41 400.18,731.98 C414.98,733.60 416.00,733.67 425.69,733.84 C434.15,733.99 435.01,733.82 436.44,731.78 ZM 520.00 732.00 C521.91,730.09 522.00,728.67 522.00,701.65 C522.00,684.43 522.41,672.12 523.05,670.29 C523.63,668.63 525.30,666.73 526.78,666.06 C530.49,664.36 552.92,662.75 562.00,663.53 C575.03,664.63 574.98,664.50 575.07,695.68 C575.15,721.05 575.82,730.22 577.73,732.13 C578.32,732.72 581.62,733.23 585.06,733.27 C595.03,733.36 594.71,734.42 595.14,700.23 C595.62,662.48 594.58,664.16 618.00,663.26 C632.72,662.70 641.40,663.88 645.22,666.97 C647.48,668.81 647.50,669.05 648.00,699.50 L 648.50 730.18 L 650.86 732.09 C653.84,734.50 662.55,734.71 665.78,732.44 C667.99,730.89 668.00,730.80 668.00,699.41 C668.00,664.70 667.83,663.56 661.70,657.16 C654.28,649.42 644.74,646.81 623.17,646.63 C610.84,646.53 605.90,646.90 600.00,648.38 C595.88,649.41 592.07,650.65 591.55,651.13 C590.06,652.50 583.51,652.15 578.44,650.43 C564.96,645.85 550.03,644.88 532.90,647.46 C521.20,649.22 516.45,650.79 511.60,654.49 C504.28,660.07 503.07,664.56 502.42,688.50 C501.77,712.59 502.69,730.55 504.68,732.54 C507.02,734.87 517.50,734.50 520.00,732.00 ZM 783.93 732.51 C796.87,729.79 802.53,726.21 806.10,718.50 C807.74,714.97 807.96,711.74 807.98,691.22 C808.00,665.88 807.56,663.31 802.20,657.66 C798.34,653.59 791.22,650.24 783.86,649.04 C775.47,647.66 752.00,646.53 748.76,647.35 C743.85,648.58 742.88,658.62 747.39,661.47 C748.72,662.32 754.09,662.99 762.00,663.31 C778.85,663.98 790.90,667.92 785.87,671.10 C785.12,671.58 767.83,671.98 747.46,671.98 C707.64,672.00 704.09,672.36 694.23,677.40 C688.77,680.20 683.59,685.26 682.06,689.32 C680.69,692.96 680.69,712.03 682.06,715.68 C684.74,722.81 695.35,730.01 707.00,732.61 C715.54,734.51 774.79,734.44 783.93,732.51 ZM 236.99 645.51 C241.19,643.33 243.00,640.17 243.00,635.00 C243.00,629.83 241.19,626.67 236.99,624.49 C231.10,621.45 223.66,623.90 220.55,629.91 C218.41,634.05 218.61,637.12 221.28,641.09 C225.16,646.84 231.15,648.53 236.99,645.51 ZM 500.75 578.37 C501.99,578.04 503.00,577.24 503.00,576.60 C503.00,575.96 447.76,520.25 380.25,452.80 C274.44,347.10 257.02,330.09 254.00,329.55 C252.07,329.21 227.55,329.06 199.50,329.21 L 148.50 329.50 L 148.22 343.36 C148.03,352.73 148.32,357.67 149.09,358.61 C150.05,359.76 158.80,360.01 199.87,360.04 C238.75,360.06 250.01,360.35 251.85,361.38 C253.15,362.09 302.20,410.61 360.85,469.20 C419.51,527.78 468.61,576.45 469.97,577.36 C471.95,578.67 475.04,579.00 485.47,578.99 C492.64,578.98 499.51,578.70 500.75,578.37 ZM 449.68 575.49 C450.08,574.25 280.60,404.63 278.51,404.18 C276.44,403.73 276.51,404.25 280.61,420.34 C285.72,440.38 288.60,449.13 293.65,459.98 C306.65,487.84 322.85,509.53 345.19,529.00 C353.28,536.04 355.97,538.05 368.50,546.34 C386.70,558.39 409.07,567.81 435.50,574.53 C444.87,576.92 449.11,577.21 449.68,575.49 ZM 535.43 571.85 C547.38,568.22 551.00,566.77 551.00,565.62 C551.00,563.80 289.62,302.95 288.08,303.24 C287.30,303.38 286.34,304.62 285.95,306.00 C285.55,307.38 284.05,312.35 282.61,317.06 C281.18,321.77 280.00,326.45 280.00,327.46 C280.00,329.89 524.15,574.00 526.58,574.00 C527.56,574.00 531.54,573.03 535.43,571.85 ZM 579.88 553.41 C584.62,550.89 589.17,548.18 589.98,547.40 C591.28,546.14 573.90,528.40 450.48,404.96 C346.56,301.01 308.98,264.02 307.53,264.23 C306.44,264.38 305.09,265.40 304.53,266.51 C303.96,267.61 301.81,271.51 299.75,275.17 C297.69,278.83 296.00,282.88 296.00,284.17 C296.00,285.95 328.65,319.15 431.79,422.26 C513.83,504.27 568.31,558.00 569.43,558.00 C570.44,558.00 575.14,555.94 579.88,553.41 ZM 605.03 537.32 C608.58,534.90 624.48,520.41 630.22,514.34 C639.96,504.08 644.79,497.34 644.29,494.73 C643.59,491.09 360.67,208.75 358.15,209.18 C357.11,209.35 348.94,216.48 339.99,225.00 C323.97,240.28 315.00,250.08 315.00,252.33 C315.00,253.76 600.10,539.00 601.52,539.00 C602.09,539.00 603.67,538.24 605.03,537.32 ZM 659.80 473.73 C663.09,467.71 664.91,463.29 664.56,462.18 C663.76,459.68 392.55,189.00 390.86,189.02 C388.57,189.04 370.92,199.05 370.29,200.68 C369.56,202.60 650.74,484.18 652.98,483.76 C653.80,483.60 656.87,479.09 659.80,473.73 ZM 673.52 443.96 C674.64,442.16 680.00,422.60 680.00,420.33 C680.00,418.77 645.21,383.42 557.45,295.82 C490.05,228.55 434.76,173.37 434.58,173.21 C434.00,172.70 410.54,180.07 409.53,181.08 C408.90,181.71 454.93,228.43 540.02,313.52 C612.33,385.84 671.81,445.00 672.19,445.00 C672.57,445.00 673.17,444.53 673.52,443.96 ZM 808.75 412.79 C810.45,411.38 810.49,390.89 808.80,389.20 C807.90,388.30 795.47,388.00 759.02,388.00 C715.73,388.00 710.18,387.82 707.97,386.36 C706.61,385.47 656.67,335.98 597.00,276.40 L 488.50 168.08 L 473.50 168.67 C465.25,168.99 458.06,169.66 457.52,170.15 C456.54,171.06 660.18,375.17 680.58,393.71 C704.24,415.23 702.26,413.80 709.09,414.19 C722.57,414.96 807.58,413.76 808.75,412.79 ZM 681.49 332.00 C675.51,302.98 665.75,280.73 647.47,254.44 C636.78,239.07 625.37,227.00 606.57,211.17 C601.69,207.07 587.95,198.08 579.54,193.49 C560.44,183.08 534.17,174.18 514.12,171.33 C510.80,170.86 509.84,171.02 510.16,171.99 C510.90,174.20 682.43,344.97 683.16,344.22 C683.54,343.82 682.79,338.33 681.49,332.00 ZM 391.40 680.44 C390.53,677.00 391.51,670.30 393.16,668.31 C395.72,665.22 400.88,664.05 416.74,662.96 C433.30,661.81 454.21,662.77 463.40,665.08 C469.41,666.59 474.00,671.19 474.00,675.68 C474.00,677.58 473.53,680.00 472.96,681.07 C471.97,682.93 470.45,683.00 431.98,683.00 L 392.04 683.00 L 391.40 680.44 ZM 708.10 715.21 C701.77,712.75 699.45,709.18 699.70,702.29 C699.95,695.17 702.24,692.62 710.80,689.98 C716.67,688.17 720.12,688.00 751.86,688.02 C770.91,688.02 787.11,688.41 787.84,688.88 C788.87,689.53 789.11,692.25 788.84,700.35 C788.52,710.39 788.35,711.11 785.73,713.73 L 782.96 716.50 L 747.73 716.71 C716.50,716.90 712.00,716.73 708.10,715.21 ZM 229.61 639.57 C229.24,638.09 228.15,637.01 226.83,636.82 C223.70,636.36 223.41,634.17 226.33,633.06 C227.71,632.54 229.12,631.19 229.48,630.06 C230.35,627.33 232.78,627.43 233.18,630.21 C233.38,631.58 234.42,632.63 235.93,632.99 C239.33,633.78 239.65,635.80 236.50,636.59 C235.02,636.96 233.46,638.30 232.95,639.63 C231.79,642.68 230.38,642.65 229.61,639.57 Z" fill="rgb(253,254,254)"/>
</g>
</svg>